<?xml version="1.0" standalone="no"?>
<!DOCTYPE svg PUBLIC "-//W3C//DTD SVG 20010904//EN"
 "http://www.w3.org/TR/2001/REC-SVG-20010904/DTD/svg10.dtd">
<svg version="1.0" xmlns="http://www.w3.org/2000/svg"
 width="960.000000pt" height="960.000000pt" viewBox="0 0 960.000000 960.000000"
 preserveAspectRatio="xMidYMid meet">
<metadata>
Created by potrace 1.14, written by Peter Selinger 2001-2017
</metadata>
<g transform="translate(0.000000,960.000000) scale(0.100000,-0.100000)"
fill="#000000" stroke="none">
<path d="M4739 9296 c-2 -2 -33 -7 -69 -10 -36 -3 -78 -8 -95 -10 -16 -3 -43
-7 -60 -10 -32 -5 -61 -11 -110 -23 -39 -9 -34 -8 -85 -22 -25 -7 -52 -15 -60
-16 -20 -5 -163 -57 -220 -80 -178 -74 -434 -237 -563 -357 -23 -21 -53 -49
-67 -62 -44 -40 -134 -139 -175 -191 -22 -27 -42 -52 -45 -55 -5 -5 -28 -38
-60 -86 -93 -140 -222 -405 -245 -503 -3 -9 -16 -58 -29 -109 -14 -51 -28
-109 -31 -130 -3 -21 -8 -49 -10 -62 -18 -89 -25 -414 -11 -485 4 -16 8 -50
10 -75 2 -25 5 -45 6 -45 1 0 3 -13 6 -30 5 -37 12 -70 14 -70 1 0 3 -7 5 -15
1 -8 8 -35 16 -60 7 -25 13 -49 15 -55 10 -44 56 -159 100 -250 60 -121 60
-122 122 -213 23 -35 42 -67 42 -72 0 -6 4 -10 9 -10 4 0 20 -17 33 -37 44
-66 232 -250 311 -303 20 -14 37 -28 37 -32 0 -5 4 -8 9 -8 6 0 30 -13 54 -30
25 -16 49 -30 55 -30 6 0 12 -4 14 -9 2 -7 164 -88 243 -121 21 -9 80 -28 111
-35 10 -3 54 -13 96 -24 101 -25 243 -43 336 -42 13 0 73 0 95 0 12 0 45 4
137 16 25 3 65 11 90 16 25 6 54 13 66 15 44 8 181 56 242 85 35 16 68 29 73
29 5 0 9 4 9 8 0 5 16 14 35 22 19 8 35 17 35 22 0 4 5 8 10 8 12 0 73 41 78
53 2 4 8 7 14 7 5 0 15 6 22 13 7 6 30 26 51 42 61 49 165 160 227 242 77 102
179 311 204 416 2 9 6 27 9 40 43 181 47 364 11 537 -27 128 -133 367 -186
420 -3 3 -23 27 -45 55 -22 27 -58 65 -79 85 -22 19 -44 40 -50 46 -77 75
-308 189 -409 200 -16 2 -33 6 -38 10 -17 10 -208 13 -262 4 -120 -21 -131
-24 -214 -61 -24 -11 -45 -19 -47 -19 -15 0 -130 -86 -176 -132 -58 -57 -61
-62 -110 -143 -68 -112 -96 -294 -64 -409 15 -53 51 -133 69 -152 5 -6 22 -24
36 -40 34 -37 58 -56 92 -71 15 -7 38 -18 52 -24 13 -7 51 -12 84 -11 72 0
134 30 168 81 28 42 29 75 4 140 -33 82 -2 152 85 192 70 31 215 11 254 -35 7
-9 17 -16 23 -16 14 0 86 -81 87 -97 0 -7 3 -13 8 -13 11 0 39 -70 55 -137 55
-239 -81 -511 -325 -651 -41 -23 -84 -44 -96 -47 -11 -2 -29 -8 -39 -13 -10
-5 -40 -14 -68 -21 -171 -38 -320 -30 -485 26 -150 50 -266 126 -392 256 -49
49 -88 94 -88 99 0 5 -6 16 -12 23 -28 32 -38 45 -38 51 0 4 -6 15 -13 23 -36
43 -102 219 -127 336 -28 134 -31 330 -5 455 3 14 7 37 10 52 21 116 109 313
196 444 71 104 252 285 359 356 134 89 306 167 445 203 17 5 35 9 40 11 6 1
28 5 50 9 22 4 43 9 46 11 35 21 469 22 469 1 0 -5 5 -5 10 -2 6 4 32 2 58 -4
26 -6 57 -14 70 -16 120 -26 272 -83 398 -151 69 -37 205 -121 214 -133 3 -3
28 -24 55 -46 67 -53 229 -217 252 -255 9 -16 21 -30 25 -30 4 0 14 -13 23
-29 8 -16 21 -35 28 -43 14 -14 113 -181 141 -238 21 -42 79 -194 85 -222 1
-4 8 -27 17 -50 25 -71 55 -213 58 -270 0 -10 3 -18 6 -18 6 0 8 -55 9 -245 0
-120 -3 -200 -9 -200 0 0 -3 -20 -5 -45 -4 -48 -10 -89 -20 -130 -3 -14 -8
-36 -11 -50 -3 -14 -9 -40 -15 -58 -6 -18 -12 -41 -14 -50 -2 -9 -4 -17 -5
-17 -1 0 -3 -10 -6 -22 -5 -28 -78 -213 -106 -267 -11 -22 -20 -43 -19 -45 2
-2 -1 -7 -6 -10 -4 -3 -19 -26 -32 -51 -29 -55 -143 -228 -168 -255 -10 -11
-35 -40 -55 -65 -69 -84 -223 -234 -294 -285 -15 -11 -32 -24 -38 -30 -24 -21
-107 -75 -116 -75 -6 0 -10 -4 -10 -9 0 -5 -9 -13 -20 -16 -11 -3 -26 -12 -32
-19 -7 -6 -47 -29 -88 -50 -41 -22 -82 -43 -90 -47 -72 -38 -300 -122 -360
-134 -8 -2 -35 -8 -60 -15 -25 -7 -54 -14 -65 -16 -11 -2 -31 -6 -45 -9 -107
-24 -267 -38 -430 -38 -157 1 -315 15 -400 37 -14 3 -37 8 -52 11 -69 13 -87
17 -153 37 -104 30 -178 56 -290 100 -55 21 -118 43 -140 49 -46 11 -55 14
-75 22 -32 13 -165 45 -285 68 -68 13 -79 15 -170 23 -44 4 -91 10 -105 12
-31 5 -346 4 -415 -1 -120 -10 -162 -15 -185 -21 -14 -3 -38 -8 -55 -10 -67
-8 -303 -64 -345 -81 -8 -4 -17 -7 -20 -8 -32 -8 -118 -40 -127 -47 -7 -5 -17
-7 -23 -3 -5 3 -10 1 -10 -4 0 -6 -6 -11 -14 -11 -7 0 -40 -12 -72 -27 -33
-15 -61 -27 -64 -27 -11 -2 -235 -124 -254 -139 -6 -4 -40 -26 -76 -49 -76
-48 -198 -140 -242 -181 -10 -9 -20 -17 -22 -17 -9 0 -234 -229 -276 -280 -25
-30 -47 -57 -50 -60 -3 -3 -17 -21 -30 -40 -13 -19 -27 -37 -30 -40 -22 -20
-154 -234 -195 -315 -11 -22 -24 -43 -28 -46 -5 -3 -8 -8 -6 -10 1 -2 -7 -24
-18 -49 -12 -25 -31 -70 -43 -100 -12 -30 -28 -71 -36 -90 -8 -19 -16 -45 -19
-58 -2 -12 -7 -27 -10 -32 -5 -9 -47 -152 -54 -185 -1 -5 -4 -19 -6 -30 -8
-33 -16 -78 -21 -115 -8 -50 -12 -75 -14 -75 -7 0 -14 -176 -14 -330 0 -168 6
-277 19 -340 3 -11 6 -33 9 -50 2 -16 13 -69 25 -117 11 -48 23 -98 25 -110 3
-13 10 -39 17 -58 17 -50 22 -64 24 -70 6 -24 21 -62 37 -100 11 -24 21 -49
22 -55 5 -34 143 -285 206 -376 125 -179 179 -240 385 -434 23 -22 198 -153
230 -172 95 -58 194 -113 204 -113 6 0 11 -4 11 -10 0 -5 5 -10 12 -10 6 0 34
-11 63 -24 172 -82 423 -149 645 -172 79 -9 318 -9 386 0 112 13 143 19 224
37 47 11 96 22 109 25 13 3 49 14 80 25 31 11 63 22 71 24 8 2 16 4 18 5 1 2
5 3 10 5 9 2 44 17 112 47 30 14 59 25 63 26 4 1 19 10 34 22 14 11 32 20 39
20 8 0 14 4 14 8 0 5 12 14 28 21 115 51 348 249 479 406 106 127 201 282 263
425 41 96 60 152 85 250 29 113 30 120 51 280 7 54 2 355 -6 355 -1 0 -3 9 -4
20 -3 21 -18 111 -22 131 -4 22 -35 129 -41 144 -3 8 -7 17 -8 20 -13 48 -20
67 -67 170 -31 66 -131 237 -147 250 -3 3 -19 22 -35 43 -82 111 -228 244
-361 329 -137 88 -367 182 -472 193 -24 2 -47 6 -51 9 -38 23 -373 23 -447 -1
-11 -3 -31 -7 -45 -9 -14 -1 -26 -3 -27 -4 -2 -1 -6 -3 -10 -4 -284 -67 -555
-258 -710 -501 -18 -27 -36 -55 -40 -60 -4 -6 -9 -17 -11 -25 -2 -8 -9 -18
-15 -22 -7 -4 -9 -8 -4 -8 4 0 -2 -18 -13 -40 -27 -53 -67 -199 -78 -282 -8
-67 -7 -196 2 -253 12 -75 20 -113 30 -140 56 -156 110 -248 206 -346 81 -83
134 -122 220 -161 111 -51 167 -63 295 -63 128 1 171 11 274 63 199 100 302
340 216 504 -24 46 -73 100 -89 99 -3 0 -17 6 -31 13 -29 15 -91 11 -120 -8
-12 -8 -32 -30 -45 -49 -30 -43 -57 -57 -113 -57 -67 0 -122 39 -163 116 -36
68 -42 162 -14 244 91 271 414 403 724 294 210 -73 381 -243 476 -474 17 -41
30 -76 30 -78 -1 -2 3 -25 16 -82 24 -106 20 -275 -11 -400 -9 -36 -17 -72
-19 -80 -14 -55 -93 -221 -108 -228 -5 -2 -8 -8 -8 -13 0 -41 -210 -264 -307
-326 -15 -9 -31 -21 -34 -25 -9 -14 -221 -118 -239 -118 -9 0 -20 -3 -24 -7
-3 -4 -12 -8 -19 -9 -7 -1 -32 -9 -57 -17 -102 -34 -175 -42 -355 -41 -150 1
-235 6 -252 17 -5 4 -25 9 -44 12 -45 9 -63 13 -66 15 -2 2 -6 3 -10 4 -114
25 -435 193 -466 243 -4 7 -13 13 -19 13 -25 0 -235 228 -300 325 -98 148
-190 346 -212 458 -2 7 -8 32 -15 57 -7 25 -15 56 -17 70 -2 14 -5 34 -8 45
-16 75 -29 367 -18 389 3 5 6 27 7 50 4 89 38 244 79 368 14 42 35 98 47 124
21 51 118 231 147 275 9 14 26 39 37 56 31 46 84 112 145 177 54 58 75 79 153
151 43 39 231 175 243 175 4 0 15 6 23 14 47 42 370 182 437 190 11 2 26 6 32
10 7 4 20 9 29 11 10 2 50 10 88 18 149 32 250 41 440 41 129 -1 181 -5 260
-19 116 -20 152 -26 167 -29 10 -1 21 -5 24 -9 4 -4 15 -7 25 -7 40 0 270 -84
384 -139 101 -50 308 -171 325 -190 3 -3 32 -26 65 -51 154 -117 352 -331 469
-509 56 -84 177 -296 174 -304 -1 -1 6 -19 15 -39 10 -21 23 -53 31 -70 22
-52 83 -248 96 -308 7 -30 15 -62 18 -70 2 -8 6 -22 7 -30 1 -8 5 -32 9 -52 3
-21 8 -53 11 -70 12 -75 16 -95 24 -138 8 -42 29 -142 35 -165 1 -5 10 -37 20
-70 10 -33 20 -67 22 -75 3 -13 36 -109 51 -150 3 -8 7 -19 8 -25 8 -33 139
-301 181 -370 13 -22 27 -47 31 -55 13 -27 127 -194 150 -220 13 -14 23 -28
23 -32 0 -5 8 -16 18 -26 9 -10 37 -43 62 -72 85 -101 261 -272 350 -340 24
-19 50 -40 58 -47 7 -7 26 -20 42 -30 17 -9 30 -21 30 -25 0 -4 7 -8 15 -8 8
0 15 -3 15 -8 0 -4 17 -16 37 -27 20 -11 41 -24 47 -30 10 -9 40 -27 101 -59
11 -6 22 -13 25 -16 8 -8 212 -107 265 -128 80 -32 211 -78 250 -88 18 -5 49
-13 90 -24 22 -6 63 -16 90 -21 28 -5 57 -12 65 -16 8 -3 29 -7 45 -8 17 -2
40 -6 52 -8 116 -28 590 -29 723 -3 14 3 32 6 115 22 17 3 39 7 50 8 11 2 20
4 20 5 0 2 11 4 25 7 65 11 336 100 358 116 6 6 12 8 12 5 0 -3 36 12 80 34
44 21 83 39 85 39 6 0 229 132 235 139 3 3 25 19 50 35 78 51 191 147 308 261
61 61 112 114 112 118 0 3 10 17 23 30 12 13 33 38 47 55 14 18 30 38 35 45
29 35 75 107 75 115 0 6 4 12 9 14 8 3 48 68 78 128 10 19 20 37 24 40 11 11
109 239 134 315 29 85 76 260 77 285 0 8 4 35 10 60 30 142 31 512 2 680 -17
101 -23 127 -54 235 -81 284 -210 532 -392 749 -76 91 -279 284 -310 295 -10
3 -31 19 -62 46 -69 61 -377 219 -441 226 -5 0 -19 6 -30 12 -11 6 -24 12 -30
13 -5 1 -37 10 -70 19 -33 10 -69 20 -80 21 -11 2 -42 8 -70 14 -123 26 -186
32 -335 31 -74 0 -153 -3 -175 -6 -160 -21 -167 -23 -255 -45 -85 -22 -225
-71 -286 -100 -22 -11 -45 -20 -51 -20 -6 0 -13 -3 -15 -7 -1 -5 -30 -22 -63
-40 -142 -76 -353 -252 -465 -388 -116 -142 -230 -360 -284 -545 -16 -57 -19
-71 -41 -203 -29 -180 -7 -455 49 -615 8 -23 16 -46 17 -50 0 -4 8 -23 16 -42
8 -19 22 -53 30 -75 9 -22 21 -47 27 -55 7 -8 18 -28 26 -45 29 -57 130 -190
197 -258 77 -78 187 -164 258 -202 26 -14 53 -29 59 -33 28 -21 188 -80 233
-87 11 -2 32 -6 45 -11 12 -4 32 -8 43 -10 11 -1 40 -6 65 -9 82 -13 236 -8
330 10 21 4 51 11 93 21 4 1 9 3 12 4 3 1 9 3 14 4 5 0 13 4 17 9 4 4 14 7 21
7 24 0 197 89 234 120 10 8 30 24 44 35 123 94 229 244 283 400 61 175 54 382
-19 542 -40 88 -157 233 -189 233 -6 0 -10 4 -10 9 0 10 -111 64 -165 81 -46
13 -142 17 -197 7 -54 -10 -132 -50 -173 -88 -91 -86 -103 -227 -25 -292 22
-18 37 -23 95 -31 51 -7 65 -17 92 -63 22 -38 25 -52 20 -99 -20 -198 -275
-308 -500 -216 -16 7 -30 12 -33 12 -19 0 -138 93 -178 139 -45 52 -131 200
-121 209 2 3 0 13 -6 23 -16 30 -35 150 -33 214 1 70 12 164 20 176 3 5 8 21
10 36 12 65 90 217 151 294 41 53 152 153 213 193 129 86 303 149 433 158 20
2 37 5 37 8 0 7 55 4 68 -4 6 -3 13 -3 16 2 4 6 81 8 81 2 0 -1 23 -3 51 -5
28 -1 60 -5 70 -9 10 -3 34 -8 52 -11 54 -9 172 -51 248 -87 93 -45 135 -71
214 -131 201 -155 352 -370 435 -623 27 -79 31 -95 41 -148 2 -16 7 -33 9 -37
8 -12 18 -159 18 -254 0 -494 -252 -959 -680 -1254 -39 -27 -74 -47 -77 -44
-3 4 -6 1 -6 -4 0 -24 -321 -164 -430 -188 -8 -2 -44 -10 -80 -19 -119 -27
-215 -38 -360 -40 -108 -1 -292 15 -342 30 -10 3 -30 7 -45 10 -54 8 -245 64
-258 76 -5 4 -15 8 -23 8 -18 0 -245 109 -252 121 -3 4 -19 14 -35 21 -32 14
-112 65 -133 85 -7 7 -16 13 -20 13 -4 0 -23 15 -43 33 -20 17 -52 44 -71 59
-39 31 -178 170 -205 207 -10 12 -29 35 -43 51 -14 15 -29 34 -35 42 -108 163
-145 221 -145 233 0 7 -4 15 -9 17 -21 8 -126 248 -156 358 -1 3 -9 30 -19 61
-9 31 -19 66 -21 78 -2 13 -7 31 -10 41 -3 10 -8 35 -10 56 -3 20 -10 43 -16
50 -7 8 -7 14 1 19 6 3 7 12 3 18 -8 14 -9 21 -19 147 -18 243 4 490 66 718 5
21 9 40 10 45 0 4 6 20 14 36 9 16 13 31 10 34 -3 3 2 19 11 36 8 17 13 31 9
31 -4 0 -2 6 4 13 6 7 20 38 32 69 11 31 44 101 72 155 28 54 56 108 62 120 6
13 14 23 19 23 4 0 7 5 7 12 0 20 158 243 224 314 92 100 216 217 320 302 168
137 365 333 466 462 19 25 38 47 42 48 4 2 8 10 8 17 0 7 4 15 8 17 11 4 131
186 176 268 62 111 155 306 162 338 1 7 11 36 23 65 24 62 33 88 36 102 2 6
14 51 28 100 41 148 59 233 72 344 4 30 9 63 12 75 9 40 11 441 2 511 -5 39
-11 90 -14 115 -2 25 -7 56 -10 70 -3 14 -8 41 -11 60 -3 19 -12 62 -20 95 -9
33 -17 69 -20 80 -9 47 -69 227 -101 305 -50 122 -175 363 -203 390 -3 3 -14
21 -24 40 -11 19 -24 40 -28 45 -5 6 -20 24 -33 40 -14 17 -25 35 -25 42 0 6
-3 13 -7 15 -5 2 -30 30 -58 63 -61 73 -127 146 -179 194 -21 20 -53 50 -70
66 -51 49 -136 118 -211 170 -38 27 -72 52 -75 55 -3 4 -12 9 -20 13 -8 4 -37
20 -65 37 -109 67 -310 161 -425 200 -36 12 -72 25 -80 28 -8 3 -20 6 -26 7
-6 2 -36 10 -65 18 -62 18 -101 26 -146 32 -18 2 -36 6 -41 9 -5 3 -29 8 -53
10 -24 3 -55 8 -69 12 -28 6 -435 16 -441 10z"/>
</g>
</svg>
